<svg xmlns="http://www.w3.org/2000/svg" width="180" height="40" viewBox="0 0 180 40">
  <!-- Icon mark -->
  <rect x="0" y="0" width="40" height="40" rx="7" fill="#0E1520"/>
  <defs>
    <linearGradient id="lg1" x1="0" y1="0" x2="0" y2="1">
      <stop offset="0%" stop-color="#6480A2" stop-opacity=".95"/>
      <stop offset="100%" stop-color="#6480A2" stop-opacity="0"/>
    </linearGradient>
    <linearGradient id="lg2" x1="0" y1="0" x2="0" y2="1">
      <stop offset="0%" stop-color="#89A8C6" stop-opacity=".7"/>
      <stop offset="100%" stop-color="#89A8C6" stop-opacity="0"/>
    </linearGradient>
  </defs>
  <g transform="translate(2, 2) scale(0.69)">
    <rect x="3" y="3" width="10" height="8" rx="1.5" fill="#6480A2"/>
    <rect x="15" y="3" width="10" height="8" rx="1.5" fill="#6480A2" opacity=".7"/>
    <rect x="27" y="3" width="10" height="8" rx="1.5" fill="#6480A2" opacity=".42"/>
    <rect x="39" y="3" width="10" height="8" rx="1.5" fill="#6480A2" opacity=".2"/>
    <rect x="0" y="10" width="52" height="2" fill="#0A0F1A"/>
    <polygon points="3,12 13,12 16,50 0,50" fill="url(#lg1)" opacity=".7"/>
    <polygon points="27,12 37,12 36,50 26,50" fill="url(#lg2)" opacity=".5"/>
    <circle cx="20" cy="46" r="2.5" fill="#B83714"/>
  </g>
  <!-- Wordmark -->
  <text x="52" y="26" font-family="'Instrument Sans', sans-serif" font-size="18" font-weight="600" fill="#15120D">Clerestory</text>
  <text x="52" y="37" font-family="'Cormorant Garamond', Georgia, serif" font-size="11" font-style="italic" fill="#78726A">Commercial Intelligence</text>
</svg>
